<svg width="64" height="48" viewBox="0 0 64 48" fill="none" xmlns="http://www.w3.org/2000/svg">
<g filter="url(#filter0_d_108_235)">
<rect x="12" y="4" width="40" height="40" rx="20" fill="#FFFAFF"/>
<path d="M39 19.5C37.667 16.5 35.333 15 32 15C27 15 24 17.5 24 24C24 30.5 27.5 33 32 33C36.5 33 39 30 39 28C39 26 38 23 32 23C29.5 23 29 24.25 29 25.5C29 27 30 28 31.5 28C34 28 35 26.5 35 23C35 19.5 33 19 32 19C31 19 30.167 19.333 29.5 20" stroke="#4A2D86" stroke-width="2" stroke-linecap="round" stroke-linejoin="round"/>
</g>
<defs>
<filter id="filter0_d_108_235" x="0" y="-2" width="64" height="64" filterUnits="userSpaceOnUse" color-interpolation-filters="sRGB">
<feFlood flood-opacity="0" result="BackgroundImageFix"/>
<feColorMatrix in="SourceAlpha" type="matrix" values="0 0 0 0 0 0 0 0 0 0 0 0 0 0 0 0 0 0 127 0" result="hardAlpha"/>
<feOffset dy="6"/>
<feGaussianBlur stdDeviation="6"/>
<feComposite in2="hardAlpha" operator="out"/>
<feColorMatrix type="matrix" values="0 0 0 0 0 0 0 0 0 0 0 0 0 0 0 0 0 0 0.15 0"/>
<feBlend mode="normal" in2="BackgroundImageFix" result="effect1_dropShadow_108_235"/>
<feBlend mode="normal" in="SourceGraphic" in2="effect1_dropShadow_108_235" result="shape"/>
</filter>
</defs>
</svg>
