<svg width="64" height="48" viewBox="0 0 64 48" fill="none" xmlns="http://www.w3.org/2000/svg">
<g filter="url(#filter0_d_108_230)">
<rect x="12" y="4" width="40" height="40" rx="20" fill="#FFFAFF"/>
<path d="M41.543 19.1038C41.5576 19.3155 41.5576 19.527 41.5576 19.7405C41.5576 26.2468 36.6044 33.7505 27.5476 33.7505V33.7468C24.872 33.7505 22.2519 32.9842 20 31.5392C20.3891 31.586 20.78 31.6095 21.1719 31.6104C23.3895 31.6122 25.5433 30.8684 27.2872 29.4986C26.2597 29.4792 25.2639 29.1392 24.4391 28.5261C23.6144 27.913 23.0018 27.0575 22.6871 26.0792C23.4253 26.2217 24.1858 26.1922 24.9102 25.9942C22.613 25.5302 20.9604 23.5119 20.9604 21.168V21.1055C21.6452 21.487 22.4116 21.6984 23.1952 21.7218C21.0312 20.2758 20.3647 17.3975 21.6712 15.1473C22.9074 16.6685 24.4497 17.9125 26.198 18.7988C27.9463 19.685 29.8614 20.1936 31.8191 20.2914C31.6239 19.4512 31.6528 18.5744 31.9028 17.7489C32.1528 16.9233 32.6152 16.1778 33.2437 15.587C35.2269 13.7227 38.3459 13.8183 40.2101 15.8006C41.3128 15.5829 42.3703 15.1786 43.337 14.6051C42.9694 15.7452 42.2002 16.713 41.1725 17.3285C42.1486 17.2134 43.1017 16.9521 44 16.5532C43.3392 17.5428 42.5072 18.4065 41.543 19.1038Z" fill="#4A2D86"/>
</g>
<defs>
<filter id="filter0_d_108_230" x="0" y="-2" width="64" height="64" filterUnits="userSpaceOnUse" color-interpolation-filters="sRGB">
<feFlood flood-opacity="0" result="BackgroundImageFix"/>
<feColorMatrix in="SourceAlpha" type="matrix" values="0 0 0 0 0 0 0 0 0 0 0 0 0 0 0 0 0 0 127 0" result="hardAlpha"/>
<feOffset dy="6"/>
<feGaussianBlur stdDeviation="6"/>
<feComposite in2="hardAlpha" operator="out"/>
<feColorMatrix type="matrix" values="0 0 0 0 0 0 0 0 0 0 0 0 0 0 0 0 0 0 0.15 0"/>
<feBlend mode="normal" in2="BackgroundImageFix" result="effect1_dropShadow_108_230"/>
<feBlend mode="normal" in="SourceGraphic" in2="effect1_dropShadow_108_230" result="shape"/>
</filter>
</defs>
</svg>
